<?xml version="1.0" standalone="no"?>
<!DOCTYPE svg PUBLIC "-//W3C//DTD SVG 20010904//EN"
 "http://www.w3.org/TR/2001/REC-SVG-20010904/DTD/svg10.dtd">
<svg version="1.0" xmlns="http://www.w3.org/2000/svg"
 width="336.000000pt" height="336.000000pt" viewBox="0 0 336.000000 336.000000"
 preserveAspectRatio="xMidYMid meet">
<metadata>
Created by potrace 1.14, written by Peter Selinger 2001-2017
</metadata>
<g transform="translate(0.000000,336.000000) scale(0.100000,-0.100000)"
fill="#000000" stroke="none">
<path d="M795 3239 c-209 -20 -424 -112 -551 -236 -167 -162 -248 -382 -238
-643 10 -258 91 -429 308 -646 166 -166 271 -239 427 -298 149 -56 175 -57
997 -58 756 -1 863 -5 895 -37 16 -16 21 -164 7 -222 -27 -112 -109 -198 -225
-236 -45 -15 -162 -17 -1196 -18 -630 -1 -1151 -5 -1158 -9 -8 -5 -11 -85 -11
-276 l0 -269 88 -89 88 -88 1175 2 c1062 1 1182 3 1257 18 420 86 662 360 690
781 14 209 -18 396 -95 553 -41 84 -61 110 -172 225 -181 187 -262 244 -421
295 -163 53 -186 55 -1030 57 -822 2 -852 3 -865 45 -11 35 -13 128 -3 181 19
107 80 183 177 221 l56 22 1096 1 c603 1 1101 5 1107 9 9 5 12 83 12 274 l0
267 -90 90 -90 90 -1083 0 c-595 0 -1113 -3 -1152 -6z"/>
</g>
</svg>
