<?xml version="1.0" standalone="no"?>
<!DOCTYPE svg PUBLIC "-//W3C//DTD SVG 20010904//EN"
 "http://www.w3.org/TR/2001/REC-SVG-20010904/DTD/svg10.dtd">
<svg version="1.0" xmlns="http://www.w3.org/2000/svg"
 width="512.000000pt" height="512.000000pt" viewBox="0 0 512.000000 512.000000"
 preserveAspectRatio="xMidYMid meet">

<g transform="translate(0.000000,512.000000) scale(0.100000,-0.100000)"
fill="#67B3E6" stroke="none">
<path d="M2321 5110 c-868 -84 -1644 -610 -2037 -1382 -139 -273 -221 -536
-266 -853 -20 -140 -17 -504 6 -660 39 -278 121 -541 247 -794 249 -502 647
-900 1150 -1150 815 -406 1779 -350 2539 147 297 194 579 482 771 788 74 116
184 342 234 478 51 138 110 376 131 531 23 157 26 521 6 660 -59 415 -191 769
-410 1099 -92 140 -185 254 -315 385 -399 403 -895 653 -1462 737 -122 18
-466 26 -594 14z m310 -1329 l29 -29 0 -743 0 -743 263 262 264 262 44 0 c68
0 118 -57 104 -120 -7 -32 -707 -734 -748 -749 -21 -8 -36 -7 -60 3 -18 8
-189 172 -384 368 l-353 354 0 43 c0 77 75 124 143 90 12 -6 136 -124 275
-262 l252 -252 0 743 0 744 29 29 c23 23 38 29 71 29 33 0 48 -6 71 -29z
m-1154 -1793 c33 -27 43 -75 43 -208 0 -138 11 -181 57 -222 54 -49 31 -48
983 -48 952 0 929 -1 983 48 46 42 57 84 57 224 0 107 4 140 18 168 32 65 113
77 163 24 22 -24 24 -34 27 -157 4 -148 -8 -228 -45 -300 -34 -67 -106 -137
-178 -173 l-60 -29 -965 0 -965 0 -60 29 c-72 36 -144 106 -178 173 -37 72
-49 152 -45 300 3 114 6 134 23 153 11 12 29 26 40 31 26 11 82 4 102 -13z"/>
</g>
</svg>
