<?xml version="1.0" standalone="no"?>
<!DOCTYPE svg PUBLIC "-//W3C//DTD SVG 20010904//EN"
 "http://www.w3.org/TR/2001/REC-SVG-20010904/DTD/svg10.dtd">
<svg version="1.0" xmlns="http://www.w3.org/2000/svg"
 width="365.000000pt" height="362.000000pt" viewBox="0 0 365.000000 362.000000"
 preserveAspectRatio="xMidYMid meet">

<g transform="translate(0.000000,362.000000) scale(0.100000,-0.100000)"
fill="#67B3E6" stroke="none">
<path d="M1595 3405 c-349 -57 -650 -210 -900 -460 -233 -233 -376 -498 -447
-831 -20 -94 -23 -137 -23 -314 0 -177 3 -220 23 -314 34 -158 74 -274 143
-411 80 -161 172 -288 304 -420 230 -230 500 -376 825 -447 91 -19 134 -22
320 -22 185 0 229 3 317 22 228 50 446 144 623 270 121 86 296 261 382 382
128 180 222 399 271 630 19 90 22 135 21 315 0 177 -3 226 -22 310 -99 456
-355 824 -737 1062 -166 104 -316 164 -520 210 -142 31 -438 41 -580 18z m514
-240 c553 -112 987 -547 1098 -1103 24 -121 24 -403 0 -524 -57 -284 -205
-551 -417 -750 -191 -180 -429 -303 -690 -355 -118 -24 -402 -24 -520 0 -500
100 -909 462 -1064 942 -48 148 -61 236 -60 425 0 189 13 284 60 427 137 421
478 761 899 897 73 24 186 48 275 60 68 8 346 -4 419 -19z"/>
<path d="M1885 2766 c-90 -42 -135 -112 -135 -208 1 -170 175 -278 327 -203
150 75 172 268 43 377 -71 62 -152 73 -235 34z"/>
<path d="M1770 2098 c-261 -31 -290 -39 -290 -78 0 -33 26 -43 95 -38 75 6
105 -8 105 -49 0 -15 -46 -200 -102 -412 -83 -315 -101 -399 -101 -456 0 -83
27 -149 79 -194 36 -32 117 -61 169 -61 47 0 143 28 199 58 70 37 184 154 224
230 37 70 36 98 -5 108 -22 6 -32 0 -62 -34 -51 -57 -97 -82 -153 -82 -40 0
-50 4 -64 25 -20 31 -20 32 56 318 32 122 81 312 110 422 28 110 53 208 56
217 6 19 -29 59 -48 57 -7 -1 -128 -15 -268 -31z"/>
</g>
</svg>
