<?xml version="1.0" standalone="no"?>
<!DOCTYPE svg PUBLIC "-//W3C//DTD SVG 20010904//EN"
 "http://www.w3.org/TR/2001/REC-SVG-20010904/DTD/svg10.dtd">
<svg version="1.0" xmlns="http://www.w3.org/2000/svg"
 width="512.000000pt" height="512.000000pt" viewBox="0 0 512.000000 512.000000"
 preserveAspectRatio="xMidYMid meet">

<g transform="translate(0.000000,512.000000) scale(0.100000,-0.100000)"
fill="#67B3E6" stroke="none">
<path d="M2330 4789 c-423 -46 -829 -213 -1164 -476 -91 -72 -286 -268 -358
-359 -448 -568 -596 -1297 -404 -1994 209 -761 822 -1365 1586 -1564 212 -55
335 -70 570 -70 228 0 353 14 554 65 780 196 1407 820 1610 1599 57 221 70
327 70 570 0 243 -13 349 -70 568 -101 388 -294 724 -583 1013 -344 343 -769
560 -1241 634 -125 19 -450 28 -570 14z m70 -721 l0 -381 -107 7 c-168 10
-473 57 -473 73 0 3 24 56 54 117 97 199 235 382 357 472 50 37 148 93 162 94
4 0 7 -172 7 -382z m373 361 c178 -90 347 -285 474 -547 42 -86 52 -116 43
-122 -28 -17 -417 -70 -517 -70 l-53 0 0 380 c0 209 2 380 5 380 3 0 25 -10
48 -21z m-1079 -210 c-26 -39 -78 -137 -117 -218 -38 -80 -72 -148 -74 -150
-4 -6 -165 55 -222 84 l-44 22 84 70 c122 102 373 263 410 263 5 0 -12 -32
-37 -71z m1771 35 c126 -67 236 -143 358 -248 l59 -50 -44 -22 c-56 -28 -217
-89 -221 -83 -2 2 -36 70 -74 150 -39 81 -91 179 -117 218 -25 39 -42 71 -37
71 4 0 39 -16 76 -36z m-2377 -583 c31 -16 111 -50 177 -76 66 -26 124 -51
128 -55 5 -4 -3 -59 -17 -121 -39 -171 -65 -334 -77 -492 -6 -78 -13 -157 -15
-174 l-5 -33 -314 0 -315 0 0 28 c0 95 60 351 116 495 64 168 226 457 255 457
5 0 35 -13 67 -29z m3076 -55 c107 -163 203 -377 251 -563 27 -103 55 -259 55
-305 l0 -28 -315 0 -314 0 -5 33 c-2 17 -10 97 -16 177 -13 163 -37 320 -76
489 -14 62 -22 116 -17 120 4 4 51 25 103 46 52 21 131 56 175 76 44 21 85 38
92 38 6 1 36 -37 67 -83z m-2354 -182 c124 -26 337 -53 468 -60 l122 -7 0
-324 0 -323 -398 0 -398 0 13 138 c24 259 85 592 107 592 6 0 45 -7 86 -16z
m1620 -76 c41 -179 61 -318 84 -595 l4 -43 -399 0 -399 0 0 323 0 324 119 6
c125 7 363 38 466 61 107 24 100 28 125 -76z m-2146 -990 c2 -18 10 -98 16
-178 13 -161 39 -333 76 -488 13 -57 24 -107 24 -112 0 -4 -44 -25 -97 -46
-54 -20 -140 -57 -192 -81 -51 -23 -95 -43 -97 -43 -12 0 -155 235 -204 335
-97 196 -146 370 -157 553 l-6 92 316 0 316 0 5 -32z m1116 -287 l0 -319 -62
-6 c-246 -22 -319 -30 -443 -52 -77 -13 -150 -27 -161 -30 -20 -5 -23 1 -43
88 -42 179 -62 317 -85 596 l-4 42 399 0 399 0 0 -319z m1114 277 c-23 -279
-43 -417 -85 -596 -20 -87 -23 -93 -43 -88 -11 3 -84 17 -161 30 -124 22 -197
30 -442 52 l-63 6 0 319 0 319 399 0 399 0 -4 -42z m952 -25 c-19 -189 -84
-410 -176 -600 -68 -142 -178 -316 -194 -309 -6 2 -65 29 -131 59 -66 29 -149
64 -183 77 -55 20 -63 26 -59 44 58 257 107 576 107 702 0 27 3 59 6 72 l6 22
316 0 315 0 -7 -67z m-2066 -1278 l0 -385 -37 15 c-118 48 -268 189 -375 349
-55 84 -168 300 -168 323 0 18 340 68 558 82 l22 1 0 -385z m545 364 c61 -6
160 -19 220 -30 61 -10 116 -19 123 -19 20 0 15 -17 -42 -134 -128 -262 -296
-455 -473 -545 -23 -11 -45 -21 -48 -21 -3 0 -5 173 -5 385 l0 386 58 -5 c31
-3 107 -11 167 -17z m-1375 -286 c36 -76 88 -175 117 -220 28 -46 50 -83 47
-83 -2 0 -35 15 -73 34 -148 75 -434 287 -413 308 12 12 223 97 242 98 10 0
38 -50 80 -137z m2184 92 c60 -24 114 -49 119 -54 20 -20 -267 -232 -414 -307
-38 -19 -71 -34 -73 -34 -3 0 19 37 47 83 29 45 81 144 117 220 41 86 71 137
80 137 8 0 64 -20 124 -45z"/>
</g>
</svg>
